<svg width="600" height="402" viewBox="0 0 600 402" fill="none" xmlns="http://www.w3.org/2000/svg">
<g clip-path="url(#clip0_2836_621)">
<path d="M393.994 393.343C385.75 391.509 375.716 383.878 377.864 373.39C378.929 368.189 383.018 364.821 387.258 362.644C393.122 359.633 399.801 358.498 406.238 358.211C413.662 357.88 421.077 358.714 428.446 359.596C435.72 360.467 442.995 361.246 450.302 361.722C464.699 362.656 479.141 362.674 493.54 361.774C507.659 360.9 521.709 359.14 535.607 356.503C542.504 355.192 549.36 353.653 556.175 351.888C562.586 350.336 568.895 348.393 575.068 346.07C583.171 342.865 596.347 336.629 595.272 325.079C594.703 318.955 590.325 314.064 585.91 310.656C580.571 306.536 574.394 303.825 568.344 301.193C540.201 288.948 512.003 276.848 483.832 264.677C477.258 261.837 470.639 259.072 464.259 255.743C458.285 252.627 452.339 249.006 447.531 244.001C443.332 239.628 439.58 233.759 439.712 227.198C439.822 221.756 442.828 217.139 446.509 213.688C455.622 205.144 468.514 201.68 480.165 199.866C494.641 197.611 509.326 197.623 523.811 195.446C535.507 193.688 548.004 190.295 557.516 182.344C561.163 179.295 564.381 175.371 565.733 170.516C566.945 165.791 566.342 160.783 564.043 156.481C561.466 151.411 557.356 147.371 553.034 144.064C547.924 140.237 542.304 137.144 536.338 134.873C523.491 129.83 509.982 127.203 496.822 123.333C490.369 121.435 483.85 119.353 477.857 116.092C472.78 113.33 467.249 109.607 464.425 104.07C458.597 92.6453 472.5 85.8366 480.378 83.2576C485.776 81.5742 491.286 80.2747 496.867 79.3687C498.054 79.1586 497.55 77.2049 496.368 77.4141C490.498 78.3535 484.709 79.7462 479.054 81.5795C474.303 83.2057 469.401 85.3429 465.669 89.0205C462.535 92.1092 460.586 96.4981 461.422 101.131C462.41 106.612 466.707 110.836 470.742 113.895C476.078 117.941 482.162 120.583 488.33 122.736C494.827 125.005 501.462 126.772 508.094 128.506C521.347 131.971 535.194 135.059 547.158 142.431C555.526 147.589 566.895 157.259 564.112 169.245C562.876 174.565 559.123 178.725 555.074 181.785C550.179 185.483 544.573 188.008 538.888 189.894C512.376 198.684 483.198 192.398 457.37 204.337C448.588 208.396 437.922 215.787 437.836 227.416C437.791 233.458 440.73 238.998 444.364 243.377C448.716 248.622 454.352 252.501 460.086 255.743C466.181 259.059 472.447 262.048 478.86 264.698C485.925 267.756 492.992 270.809 500.06 273.858L542.954 292.391L564.266 301.599C570.771 304.41 577.443 307.105 583.357 311.231C588.199 314.609 593.92 320.15 593.426 327.032C593.034 332.496 588.628 336.44 584.601 339.077C579.387 342.491 573.53 344.699 567.703 346.534C560.982 348.651 554.15 350.406 547.304 351.985C533.206 355.226 518.909 357.532 504.507 358.887C490.058 360.256 475.537 360.702 461.031 360.222C453.698 359.979 446.377 359.495 439.067 358.772C431.532 358.024 424.03 356.872 416.475 356.361C409.642 355.899 402.744 356.006 396.015 357.492C390.396 358.733 384.46 360.944 380.195 365.258C378.684 366.774 377.509 368.59 376.747 370.589C375.984 372.589 375.651 374.726 375.768 376.862C376.121 381.178 377.953 385.239 380.953 388.361C384.339 391.885 388.711 394.303 393.496 395.298C394.673 395.56 395.177 393.607 393.994 393.343L393.994 393.343Z" fill="#E6E6E6"/>
<path d="M600 394.861H0V396.375H600V394.861Z" fill="#3F3D56"/>
<path d="M549.663 322.73L577.878 364.566L551.609 390.835L548.204 384.024L554.041 370.403C554.041 370.403 553.068 357.755 549.663 354.35C546.258 350.945 531.177 330.513 531.177 330.513L549.663 322.73Z" fill="#FFB8B8"/>
<path d="M513.665 187.493C513.665 187.493 519.015 195.961 507.826 232.445C507.826 232.445 560.015 320.527 551.745 326.364C543.475 332.202 521.096 345.121 515.259 341.229C509.421 337.338 466.964 205.492 466.964 205.492L513.665 187.493Z" fill="#2F2E41"/>
<path d="M572.77 357.026L581.283 365.539C585.661 369.917 588.58 376.241 580.31 381.592C572.04 386.943 543.339 406.888 533.61 400.564C523.881 394.24 545.285 388.403 545.285 388.403C545.285 388.403 548.824 375.28 550.703 378.193C552.582 381.106 552.582 386.943 552.582 386.943L572.77 357.026Z" fill="#2F2E41"/>
<path d="M469.883 345.594C469.883 345.594 454.316 374.295 454.316 377.7C454.316 381.106 455.289 390.835 455.289 390.835L425.615 398.132L415.399 393.267L418.804 384.511C418.804 384.511 437.29 378.187 441.182 366.025C445.073 353.864 449.451 341.216 449.451 341.216L469.883 345.594Z" fill="#FFB8B8"/>
<path d="M487.882 60.0393C499.166 60.0393 508.314 50.8918 508.314 39.6078C508.314 28.3238 499.166 19.1763 487.882 19.1763C476.598 19.1763 467.451 28.3238 467.451 39.6078C467.451 50.8918 476.598 60.0393 487.882 60.0393Z" fill="#FFB8B8"/>
<path d="M482.531 57.1206L492.286 85.1482L513.665 75.6062C513.665 75.6062 499.071 53.2288 499.071 50.3101L482.531 57.1206Z" fill="#FFB8B8"/>
<path d="M479.612 156.846H505.395C505.395 156.846 523.88 185.061 513.178 214.735C511.539 219.279 509.912 225.644 508.289 233.17C504.554 250.477 500.836 273.922 497.026 295.465C491.674 325.725 486.14 352.234 480.123 352.716C467.962 353.689 444.313 353.526 444.313 348.662C444.313 343.797 460.154 203.06 460.154 203.06L463.559 197.222L464.203 171.795C464.304 167.782 465.975 163.969 468.856 161.174C471.737 158.379 475.598 156.825 479.612 156.846L479.612 156.846Z" fill="#2F2E41"/>
<path d="M454.073 377.457C454.073 377.457 459.667 386.943 458.208 393.754C456.748 400.564 454.316 399.591 443.614 400.564C432.912 401.537 396.427 401.537 396.427 394.727C396.427 387.916 424.888 379.072 425.008 381.791C425.128 384.511 426.101 389.862 423.182 390.835C420.264 391.808 422.939 391.078 422.939 391.078L454.073 377.457Z" fill="#2F2E41"/>
<path d="M470.301 215.025C470.301 215.025 464.45 249.148 451.535 237.391C438.62 225.634 460.133 209.287 460.133 209.287L470.301 215.025Z" fill="#FFB8B8"/>
<path d="M510.705 172.053C511.383 172.359 512.132 172.474 512.871 172.387C513.61 172.299 514.311 172.012 514.899 171.556C515.753 170.886 516.322 169.918 516.491 168.846C518.531 157.082 521.016 124.469 522.447 107.978C524.242 87.2847 515.273 71.2573 515.198 71.1597L509.912 63.8919C509.363 63.1326 508.573 62.5814 507.671 62.3282C506.769 62.075 505.808 62.1346 504.944 62.4974C504.944 62.4974 488.442 79.618 488.381 80.279C488.123 83.1175 486.159 89.4078 475.922 99.6444C464.721 110.845 464.659 120.621 464.907 123.35C464.923 123.53 464.932 123.709 464.932 123.888C464.911 125.112 465.077 126.333 465.425 127.507C470.117 142.298 466.443 160.005 460.543 178.489C460.32 179.324 460.361 180.208 460.662 181.019C460.963 181.829 461.509 182.526 462.223 183.013C463.946 184.185 461.88 182.446 462.495 183.199C466.561 188.181 472.412 181.237 479.105 173.66C481.437 171.02 484.08 168.029 487.194 164.914C491.476 160.632 499.659 170.404 503.463 170.404C505.967 170.434 508.435 170.996 510.705 172.053Z" fill="#06D6A0"/>
<path d="M515.618 80.286C515.618 80.286 525.264 90.4038 517.961 101.364C510.659 112.325 510.526 120.982 510.526 120.982C510.526 120.982 500.213 200.625 481.777 194.69L470.616 217.437L455.733 210.155L466.97 190.243C466.97 190.243 459.844 189.015 462.474 184.354C464.321 181.081 476.319 144.683 483.298 123.307C486.256 114.248 488.312 107.887 488.312 107.887C488.312 107.887 497.975 75.9154 515.618 80.286Z" fill="#06D6A0"/>
<path opacity="0.2" d="M513.422 121.091L503.173 159.63L510.968 118.076L513.422 121.091Z" fill="black"/>
<path d="M465.591 30.5552C465.591 30.5552 462.156 3.82305 490.183 12.5891C490.183 12.5891 510.199 8.91634 516.764 33.9543L523.41 60.2003L520.171 58.4372L518.661 61.7383L513.412 63.0676L511.166 58.6092L510.079 64.0234L467.085 68.3096C467.085 68.3096 486.341 56.9216 486.646 36.5118L482.979 40.3878L465.591 30.5552Z" fill="#2F2E41"/>
<path d="M63.9319 2.24622C63.2819 2.24865 62.6593 2.50883 62.2009 2.96969C61.7424 3.43055 61.4855 4.05444 61.4865 4.70449V203.842C61.4855 204.492 61.7424 205.116 62.2008 205.577C62.6593 206.038 63.2819 206.298 63.9319 206.3H348.231C348.881 206.298 349.503 206.038 349.962 205.577C350.42 205.116 350.677 204.492 350.676 203.842V4.70449C350.677 4.05447 350.42 3.43058 349.962 2.96972C349.503 2.50886 348.881 2.24866 348.231 2.24622H63.9319Z" fill="#06D6A0"/>
<path d="M62.9093 119.28C71.5817 119.255 79.7691 122.337 86.91 127.13C94.4052 132.161 100.74 138.826 106.305 145.884C112.454 153.685 117.723 162.125 123.379 170.277C128.603 177.807 134.2 185.126 140.932 191.382C147.301 197.301 154.678 202.277 162.997 204.976C164.011 205.305 165.035 205.596 166.069 205.855C167.234 206.147 167.73 204.348 166.565 204.056C158.022 201.912 150.383 197.268 143.816 191.48C136.964 185.441 131.267 178.274 126.03 170.825C120.328 162.715 115.081 154.283 109.051 146.404C103.473 139.115 97.1994 132.261 89.7478 126.845C82.8331 121.818 74.8234 118.238 66.2369 117.54C65.1297 117.45 64.02 117.412 62.9092 117.415C62.6674 117.423 62.4384 117.525 62.2703 117.699C62.1022 117.873 62.0082 118.106 62.0082 118.348C62.0082 118.589 62.1022 118.822 62.2703 118.996C62.4384 119.17 62.6674 119.272 62.9092 119.28L62.9093 119.28Z" fill="white"/>
<path d="M63.8784 205.409C79.1339 189.978 99.9891 182.684 120.699 177.952C142.36 173.003 164.708 170.347 185.289 161.517C195.116 157.415 204.137 151.6 211.932 144.343C219.209 137.391 225.246 129.248 229.782 120.264C239.039 102.051 241.919 81.2586 237.959 61.2154C233.769 40.8387 223.382 22.2555 208.221 8.01161C206.373 6.27489 204.46 4.61218 202.482 3.02346C201.556 2.27723 200.227 3.58919 201.163 4.34262C217.277 17.3363 228.946 35.0249 234.55 54.9526C240.024 74.6106 238.607 95.5501 230.535 114.292C226.617 123.396 221.197 131.776 214.499 139.081C207.393 146.701 198.944 152.945 189.574 157.501C169.61 167.357 147.265 170.408 125.71 174.947C105.387 179.227 84.6564 185.331 68.3622 198.778C66.3395 200.449 64.4027 202.223 62.5592 204.09C61.7143 204.945 63.0327 206.265 63.8784 205.409Z" fill="white"/>
<path d="M62.7339 88.5931C86.1468 82.2605 110.922 83.109 133.847 91.0286C140.507 93.3126 147.338 95.9672 152.909 100.383C157.702 104.182 161.911 109.933 160.714 116.39C159.61 122.343 154.135 127.044 148.242 127.905C142.165 128.792 136.627 125.094 133.84 119.853C132.417 117.254 131.766 114.302 131.966 111.345C132.166 108.388 133.207 105.551 134.966 103.166C138.489 98.421 144.347 95.7111 150.103 94.9598C156.683 94.101 163.155 96.0405 168.846 99.2836C181.71 106.613 189.924 119.392 200.727 129.133C205.904 133.949 211.983 137.692 218.614 140.148C225.026 142.365 231.791 143.388 238.573 143.167C252.788 142.805 266.419 137.67 278.032 129.614C289.682 121.534 299.304 110.925 307.729 99.6031C312.233 93.5489 316.149 87.0437 320.863 81.1493C325.503 75.3473 331.245 70.1892 338.587 68.2469C341.929 67.3227 345.456 67.3032 348.808 68.1905C349.043 68.2466 349.291 68.2092 349.499 68.0861C349.708 67.963 349.86 67.7638 349.924 67.5305C349.989 67.2972 349.96 67.0481 349.844 66.8356C349.728 66.6231 349.534 66.4639 349.303 66.3915C342.165 64.445 334.661 66.7234 328.743 70.8779C322.412 75.3217 317.876 81.7628 313.572 88.0708C304.975 100.674 295.715 112.887 283.963 122.746C272.229 132.59 258.108 139.643 242.714 141.057C235.35 141.799 227.912 141.074 220.83 138.924C213.426 136.599 207.007 132.398 201.332 127.162C190.183 116.875 181.511 103.371 167.557 96.4853C161.675 93.5829 155.238 92.1904 148.72 93.2955C142.981 94.2685 137.337 97.0984 133.718 101.747C131.886 104.084 130.69 106.857 130.248 109.794C129.806 112.731 130.132 115.732 131.196 118.505C133.257 123.917 137.857 128.592 143.698 129.657C149.593 130.733 155.753 128.014 159.435 123.387C161.278 121.065 162.397 118.252 162.653 115.298C162.909 112.345 162.291 109.381 160.875 106.777C157.847 100.923 151.939 96.8758 146.185 94.0198C138.955 90.5492 131.367 87.8821 123.555 86.0665C107.526 82.1576 90.8754 81.502 74.5882 84.1385C70.4298 84.8172 66.3079 85.7035 62.238 86.7942C62.0071 86.8665 61.8133 87.0257 61.6975 87.2382C61.5816 87.4507 61.5529 87.6998 61.6172 87.9331C61.6815 88.1664 61.8339 88.3656 62.0422 88.4887C62.2505 88.6119 62.4986 88.6493 62.7339 88.5931Z" fill="white"/>
<path d="M257.374 206.228C263.974 197.365 270.723 187.963 273.572 177.119C274.991 171.943 275.199 166.51 274.18 161.24C273.195 156.646 271.275 152.303 268.54 148.482C262.93 140.514 254.66 134.592 245.859 130.595C234.96 125.644 223.207 123.106 211.831 119.536C201.346 116.245 190.595 111.952 182.762 103.954C175.362 96.3977 171.169 85.024 175.296 74.7939C179.041 65.5116 188.169 59.356 197.28 56.1063C208.451 52.1219 220.415 51.4047 231.799 48.2468C241.316 45.6068 251.055 41.1053 256.948 32.84C261.941 25.8355 263.544 15.7346 259.553 7.90577C258.579 6.00795 257.269 4.30275 255.686 2.87325C254.798 2.06865 253.475 3.3841 254.367 4.19241C261.098 10.2925 261.178 20.7292 257.386 28.455C252.933 37.5262 243.319 42.6935 234.064 45.6285C223.05 49.1219 211.394 49.8675 200.326 53.1543C190.867 55.9636 181.613 61.0003 176.046 69.4184C173.343 73.4499 171.861 78.1758 171.777 83.0289C171.806 88.2223 173.192 93.3179 175.797 97.8107C181.059 107.154 190.439 113.198 200.092 117.277C220.387 125.851 244.464 127.161 261.185 142.882C268.365 149.634 273.241 158.601 272.959 168.645C272.649 179.724 266.726 189.804 260.566 198.657C259.008 200.897 257.393 203.098 255.763 205.287C255.045 206.25 256.664 207.181 257.374 206.228V206.228Z" fill="white"/>
<path d="M105.009 4.73926C107.576 6.61063 109.654 9.07406 111.066 11.9203C112.478 14.7666 113.183 17.9116 113.119 21.0882C113.018 24.3044 112.123 27.4457 110.514 30.2321C108.905 33.0186 106.631 35.3638 103.896 37.0587C98.715 40.1168 91.4332 40.5016 87.3078 35.5044C85.6011 33.4774 84.7504 30.8657 84.9357 28.2224C85.0825 26.9467 85.5344 25.7252 86.2532 24.6611C86.9719 23.597 87.9365 22.7218 89.0651 22.1094C94.2986 19.1233 100.571 20.8813 105.408 23.7425C108.401 25.5135 111.14 27.668 114.003 29.6354C116.737 31.5313 119.657 33.1443 122.718 34.4497C134.904 39.5968 149.201 39.658 161.213 33.9685C166.656 31.3627 171.53 27.7078 175.556 23.2135C179.583 18.7192 182.682 13.474 184.677 7.77891C185.158 6.3709 185.563 4.93814 185.892 3.4868C186.157 2.31782 184.359 1.81872 184.093 2.99086C181.29 15.326 172.726 25.9924 161.504 31.7499C149.273 38.0256 134.171 37.85 121.808 32.0143C118.639 30.4531 115.618 28.6073 112.782 26.4997C109.866 24.4097 106.958 22.2515 103.698 20.7173C98.5734 18.3057 91.866 17.6271 87.0604 21.1938C85.9333 22.0138 84.9942 23.0649 84.306 24.2771C83.6179 25.4892 83.1965 26.8343 83.0701 28.2224C82.8885 31.0645 83.7362 33.877 85.4579 36.1455C89.455 41.5373 96.6504 42.3009 102.552 39.8115C108.76 37.1933 113.232 31.2651 114.559 24.7138C115.355 20.6689 114.965 16.4805 113.438 12.6515C111.911 8.82251 109.311 5.51576 105.95 3.12838C104.974 2.42636 104.042 4.04386 105.009 4.73926H105.009Z" fill="white"/>
<path d="M302.854 205.87C304.832 196.878 308.779 188.437 314.411 181.154C320.019 173.849 327.109 167.812 335.214 163.439C339.766 160.991 344.614 159.138 349.638 157.926C350.805 157.645 350.311 155.845 349.142 156.127C339.969 158.391 331.411 162.656 324.08 168.617C316.718 174.54 310.692 181.954 306.401 190.373C303.984 195.124 302.187 200.165 301.055 205.374C300.803 206.544 302.601 207.045 302.854 205.87H302.854Z" fill="white"/>
<path d="M292.948 3.1498C288.971 3.18985 285.616 5.943 283.987 9.4533C282.139 13.4369 282.644 17.8207 284.626 21.6588C289.249 30.6127 299.343 33.7859 306.611 39.9766C309.983 42.8488 312.923 46.5037 313.696 50.976C314.451 55.3354 312.894 59.828 310.343 63.3361C307.558 67.1665 303.358 69.7999 298.983 71.4608C294.483 73.1719 289.73 74.1247 284.918 74.2804C280.27 74.4121 275.356 73.6 271.507 70.8272C269.909 69.6852 268.566 68.2239 267.563 66.5357C266.559 64.8476 265.917 62.9695 265.678 61.0203C265.481 59.2578 265.78 57.4753 266.541 55.8734C267.302 54.2716 268.495 52.9141 269.986 51.9537C272.993 50.1759 276.559 49.5972 279.974 50.3329C288.481 52.014 292.887 60.4551 294.768 68.1931C297.164 78.0465 296.212 88.5217 299.896 98.0962C303.037 106.198 308.755 113.043 316.169 117.575C324.667 122.744 333.817 124.417 343.46 121.892C345.915 121.236 348.303 120.348 350.59 119.239C351.673 118.721 350.728 117.112 349.649 117.628C340.063 122.217 330.256 122.363 320.609 117.842C312.615 114.049 306.208 107.567 302.509 99.5296C298.144 90.0299 299.012 79.3633 296.934 69.329C295.262 61.2524 291.2 52.2495 282.901 49.2127C276.224 46.7689 267.274 48.6659 264.494 55.8569C263.041 59.6159 263.882 63.9141 265.878 67.3076C268.13 71.0252 271.686 73.7701 275.853 75.0063C280.533 76.4937 285.583 76.3691 290.384 75.6121C295.214 74.9371 299.885 73.4026 304.175 71.0812C308.285 68.8497 311.627 65.4324 313.767 61.2744C315.76 57.2101 316.402 52.48 314.886 48.1489C311.537 38.5797 301.408 34.6285 293.846 29.0955C290.121 26.3694 286.623 22.7885 285.235 18.2762C284.585 16.3435 284.496 14.2659 284.979 12.2848C285.463 10.3037 286.498 8.50037 287.965 7.0841C289.307 5.79333 291.086 5.05483 292.948 5.01535C293.19 5.00697 293.419 4.90502 293.587 4.731C293.755 4.55699 293.849 4.32451 293.849 4.08257C293.849 3.84063 293.755 3.60815 293.587 3.43413C293.419 3.26011 293.19 3.15817 292.948 3.14978L292.948 3.1498Z" fill="white"/>
<path d="M255.585 173.559C275.505 173.559 291.653 157.411 291.653 137.491C291.653 117.571 275.505 101.423 255.585 101.423C235.665 101.423 219.517 117.571 219.517 137.491C219.517 157.411 235.665 173.559 255.585 173.559Z" fill="white"/>
<path d="M264.913 56.6492C272.812 56.6492 279.216 50.2457 279.216 42.3465C279.216 34.4473 272.812 28.0437 264.913 28.0437C257.014 28.0437 250.61 34.4473 250.61 42.3465C250.61 50.2457 257.014 56.6492 264.913 56.6492Z" fill="white"/>
<path d="M90.1703 67.2208C98.0695 67.2208 104.473 60.8172 104.473 52.918C104.473 45.0188 98.0695 38.6152 90.1703 38.6152C82.2711 38.6152 75.8675 45.0188 75.8675 52.918C75.8675 60.8172 82.2711 67.2208 90.1703 67.2208Z" fill="white"/>
<path opacity="0.2" d="M497.564 297.002L507.151 233.121L499.353 302.083L497.564 297.002Z" fill="black"/>
<path d="M513.232 23.6618C519.202 23.6618 524.042 18.8216 524.042 12.851C524.042 6.88033 519.202 2.04016 513.232 2.04016C507.261 2.04016 502.421 6.88033 502.421 12.851C502.421 18.8216 507.261 23.6618 513.232 23.6618Z" fill="#2F2E41"/>
<path d="M502.092 10.2042C502.27 7.46139 503.486 4.88938 505.494 3.01209C507.501 1.13479 510.149 0.0934038 512.898 0.100012C512.674 0.0716872 512.453 0.0372598 512.226 0.0226247C510.808 -0.0694623 509.387 0.118642 508.042 0.576179C506.697 1.03371 505.456 1.75172 504.389 2.68916C503.322 3.6266 502.45 4.76512 501.824 6.03963C501.197 7.31414 500.827 8.69968 500.736 10.1171C500.645 11.5345 500.834 12.9559 501.292 14.3002C501.751 15.6445 502.47 16.8853 503.408 17.9516C504.346 19.018 505.485 19.889 506.76 20.515C508.035 21.1409 509.421 21.5095 510.838 21.5997C511.066 21.6143 511.29 21.6085 511.515 21.609C508.788 21.2636 506.295 19.8917 504.545 17.7728C502.794 15.6539 501.917 12.9473 502.092 10.2042Z" fill="#2F2E41"/>
<path d="M486.205 45.959C488.07 45.959 489.583 43.8414 489.583 41.2292C489.583 38.6171 488.07 36.4995 486.205 36.4995C484.339 36.4995 482.826 38.6171 482.826 41.2292C482.826 43.8414 484.339 45.959 486.205 45.959Z" fill="#FFB8B8"/>
<path opacity="0.2" d="M479.448 129.742L464.464 179.39L482.826 124.752L479.448 129.742Z" fill="black"/>
</g>
<defs>
<clipPath id="clip0_2836_621">
<rect width="600" height="401.79" fill="white"/>
</clipPath>
</defs>
</svg>
