<svg width="600" height="418" viewBox="0 0 600 418" fill="none" xmlns="http://www.w3.org/2000/svg">
<g clip-path="url(#clip0_2836_743)">
<path d="M501.322 64.2183L455.037 64.6692C452.861 53.9589 445.551 25.8566 452.134 18.1914C452.434 15.3064 453.836 12.6483 456.046 10.7704C458.257 8.89253 461.106 7.93957 464.002 8.10989C471.176 -3.11972 483.125 -1.43367 491.201 5.57972C499.329 8.38428 502.394 13.3668 501.322 20.1282C507.341 25.3971 508.452 31.8075 505.75 39.1045L501.322 64.2183Z" fill="#2F2E41"/>
<path d="M496.866 92.7312L463.473 88.1075L456.794 78.3463C465.994 72.2437 469.25 63.72 465.014 52.1453L488.133 51.6315C487.049 61.939 490.458 69.9198 499.949 74.7501L496.866 92.7312Z" fill="#FFB9B9"/>
<path d="M455.578 393.932L454.301 411.388C454.243 412.178 454.355 412.972 454.629 413.715C454.903 414.458 455.332 415.135 455.889 415.698C456.446 416.262 457.117 416.7 457.857 416.983C458.596 417.267 459.388 417.388 460.179 417.34L469.145 416.797C469.561 416.772 469.966 416.656 470.331 416.456C470.696 416.257 471.013 415.98 471.259 415.644C471.505 415.308 471.675 414.923 471.755 414.514C471.835 414.106 471.824 413.685 471.723 413.281L466.746 393.374L455.578 393.932Z" fill="#E6E6E6"/>
<path d="M484.605 393.374L479.628 413.281C479.527 413.685 479.516 414.106 479.597 414.514C479.677 414.923 479.846 415.308 480.092 415.644C480.338 415.98 480.655 416.257 481.02 416.456C481.386 416.656 481.791 416.772 482.206 416.797L491.172 417.34C491.963 417.388 492.755 417.267 493.495 416.983C494.235 416.7 494.906 416.262 495.462 415.698C496.019 415.135 496.449 414.458 496.723 413.715C496.997 412.972 497.108 412.178 497.051 411.388L495.774 393.932L484.605 393.374Z" fill="#E6E6E6"/>
<path d="M496.353 396.355L484.253 395.141L472.207 266.378L467.654 394.726L455.766 394.301L435.73 216.544H512.278L496.353 396.355Z" fill="#06D6A0"/>
<path d="M477.858 60.3652C490.626 60.3652 500.976 50.0147 500.976 37.2466C500.976 24.4786 490.626 14.128 477.858 14.128C465.09 14.128 454.739 24.4786 454.739 37.2466C454.739 50.0147 465.09 60.3652 477.858 60.3652Z" fill="#FFB9B9"/>
<path d="M523.581 220.654L430.079 221.682C443.955 168.857 452.256 119.787 437.785 86.0526L460.904 74.7501C472.051 86.3771 484.466 85.1784 497.894 73.7226L519.985 79.3739C516.201 123.611 517.897 170.989 523.581 220.654Z" fill="#06D6A0"/>
<path d="M404.392 166.197L462.445 189.316L475.425 193.133C476.005 193.304 476.614 193.355 477.215 193.285C477.816 193.214 478.397 193.023 478.922 192.722C479.447 192.422 479.906 192.018 480.271 191.535C480.637 191.053 480.901 190.502 481.047 189.915C481.305 188.885 481.189 187.798 480.721 186.846C480.253 185.893 479.463 185.137 478.491 184.712L465.014 180.582L424.428 156.95L432.905 134.602L415.181 125.097L404.392 166.197Z" fill="#FFB9B9"/>
<path d="M404.906 124.07C415.951 128.379 424.736 135.733 431.62 145.647L453.198 114.309L437.785 86.0525L404.906 124.07Z" fill="#06D6A0"/>
<path d="M503.914 33.4998C494.53 31.0822 485.305 30.7502 476.337 33.8168C470.625 36.5835 463.764 36.3286 456.135 34.049V10.9836L497.323 12.0819L503.914 33.4998Z" fill="#2F2E41"/>
<path d="M462.253 139.261C460.437 139.263 458.697 139.985 457.413 141.269C456.129 142.552 455.407 144.293 455.405 146.108L458.108 202.684C458.11 204.499 458.832 206.24 460.116 207.523C461.399 208.807 463.14 209.529 464.955 209.531H495.856C497.671 209.529 499.411 208.807 500.695 207.523C501.979 206.24 502.701 204.499 502.703 202.684L505.405 146.108C505.403 144.293 504.681 142.552 503.398 141.269C502.114 139.985 500.374 139.263 498.558 139.261H462.253Z" fill="#3F3D56"/>
<path d="M549.926 161.923L499.324 182.072L495.507 183.592C495.385 183.639 495.263 183.68 495.135 183.72L482.345 187.484C480.709 187.964 478.446 185.761 477.122 184.241C476.466 183.508 476.094 182.565 476.075 181.582C476.055 180.599 476.388 179.641 477.013 178.882C477.19 178.679 477.385 178.491 477.595 178.322C478.088 177.938 478.668 177.683 479.284 177.578L492.061 175.065C492.519 174.975 492.96 174.811 493.365 174.578L499.324 171.105L530.264 153.092C531.124 152.592 531.779 151.802 532.112 150.865C532.445 149.927 532.434 148.901 532.081 147.97L526.176 132.396C525.814 131.443 525.811 130.391 526.167 129.436C526.524 128.481 527.217 127.689 528.115 127.207L537.899 121.964C538.458 121.663 539.078 121.494 539.712 121.468C540.346 121.442 540.977 121.561 541.559 121.815C542.14 122.068 542.657 122.451 543.069 122.933C543.481 123.415 543.779 123.985 543.939 124.599L552.432 156.95C552.694 157.942 552.583 158.995 552.121 159.911C551.659 160.827 550.878 161.543 549.926 161.923Z" fill="#FFB9B9"/>
<path d="M552.865 118.419C541.819 122.728 533.034 130.082 526.15 139.996L504.572 108.657L519.985 79.3738L552.865 118.419Z" fill="#06D6A0"/>
<path d="M493.243 57.8234C483.13 62.0302 472.525 61.8594 461.487 57.8234C464.698 52.3409 459.897 48.0471 457.432 42.5127L498.649 41.2879C495.497 46.0957 490.846 51.7761 493.243 57.8234Z" fill="white"/>
<path d="M498.212 42.2027L497.734 41.725L498.409 41.0493L502.446 36.3385L502.96 36.7777L498.905 41.5074L498.212 42.2027Z" fill="white"/>
<path d="M454.608 39.3391L454.176 39.8585L458.23 43.2368L458.662 42.7175L454.608 39.3391Z" fill="white"/>
<path d="M499.377 46.175L492.28 57.3226L492.85 57.6855L499.947 46.5379L499.377 46.175Z" fill="white"/>
<path d="M455.353 46.1742L454.783 46.537L461.877 57.6857L462.447 57.3228L455.353 46.1742Z" fill="white"/>
<path d="M500.676 170.15V182.391L496.414 184.088C496.279 184.14 496.143 184.186 496 184.231L481.722 188.432C479.897 188.967 477.37 186.509 475.892 184.812C475.16 183.994 474.746 182.941 474.724 181.843C474.701 180.746 475.073 179.677 475.772 178.831C475.969 178.603 476.186 178.394 476.42 178.205C476.97 177.776 477.618 177.491 478.306 177.375L492.568 174.569C493.079 174.469 493.571 174.285 494.024 174.026L500.676 170.15Z" fill="white"/>
<path d="M506.851 126.488H504.409C504.409 91.9536 497.299 67.8872 490.37 67.8872L489.759 65.4455C495.974 65.4455 499.935 75.4618 502.165 83.8646C505.187 95.2561 506.851 110.393 506.851 126.488Z" fill="#3F3D56"/>
<path d="M450.692 117.942H448.251C448.251 86.3141 455.41 66.6664 465.953 66.6664L465.343 69.1081C458.05 69.1081 450.692 84.208 450.692 117.942Z" fill="#3F3D56"/>
<path d="M505.63 133.202C509.002 133.202 511.735 130.469 511.735 127.098C511.735 123.727 509.002 120.994 505.63 120.994C502.259 120.994 499.526 123.727 499.526 127.098C499.526 130.469 502.259 133.202 505.63 133.202Z" fill="#3F3D56"/>
<path d="M440.926 132.592H438.484C438.484 123.841 443.413 116.721 449.471 116.721V119.163C444.759 119.163 440.926 125.187 440.926 132.592Z" fill="#3F3D56"/>
<path d="M460.459 132.592H458.017C458.017 125.187 454.184 119.163 449.471 119.163V116.721C455.53 116.721 460.459 123.841 460.459 132.592Z" fill="#3F3D56"/>
<path d="M459.238 135.644C460.587 135.644 461.68 134.551 461.68 133.202C461.68 131.854 460.587 130.761 459.238 130.761C457.89 130.761 456.797 131.854 456.797 133.202C456.797 134.551 457.89 135.644 459.238 135.644Z" fill="#3F3D56"/>
<path d="M439.705 135.644C441.053 135.644 442.146 134.551 442.146 133.202C442.146 131.854 441.053 130.761 439.705 130.761C438.356 130.761 437.263 131.854 437.263 133.202C437.263 134.551 438.356 135.644 439.705 135.644Z" fill="#3F3D56"/>
<path d="M145.453 51.1469L102.571 58.4088C101.511 58.5895 100.423 58.3709 99.5151 57.7952C98.6077 57.2194 97.9461 56.3276 97.6584 55.2921C94.5602 44.1101 88.0827 29.5227 94.3717 22.1998C94.6921 19.1191 96.1883 16.2807 98.5488 14.2754C100.909 12.2702 103.952 11.2525 107.044 11.4344C114.705 -0.557032 127.465 1.24341 136.089 8.7326C144.768 11.7274 148.04 17.0479 146.896 24.2681C150.646 27.5501 152.611 31.2469 153.026 35.3045C153.222 37.5624 152.935 39.8364 152.183 41.9745C151.431 44.1126 150.232 46.0658 148.665 47.7036L145.453 51.1469Z" fill="#2F2E41"/>
<path d="M138.786 84.9071L105.542 82.9516C108.8 75.474 110.102 68.2734 108.802 61.4411H133.571C133.515 66.6869 136.126 75.7613 138.786 84.9071Z" fill="#9F616A"/>
<path d="M98.77 392.087L97.4065 410.727C97.3448 411.571 97.4642 412.418 97.7567 413.212C98.0492 414.006 98.5081 414.728 99.1026 415.33C99.697 415.932 100.413 416.4 101.203 416.702C101.994 417.005 102.839 417.135 103.684 417.083L113.258 416.504C113.702 416.477 114.134 416.352 114.524 416.139C114.914 415.927 115.253 415.63 115.516 415.272C115.778 414.914 115.959 414.502 116.045 414.065C116.13 413.629 116.119 413.18 116.011 412.749L110.696 391.491L98.77 392.087Z" fill="#E6E6E6"/>
<path d="M129.767 391.491L124.452 412.748C124.344 413.18 124.333 413.629 124.418 414.065C124.504 414.502 124.685 414.913 124.947 415.272C125.21 415.63 125.549 415.927 125.939 416.139C126.329 416.352 126.761 416.477 127.205 416.504L136.779 417.083C137.624 417.135 138.469 417.005 139.26 416.702C140.05 416.4 140.766 415.932 141.36 415.33C141.955 414.728 142.414 414.006 142.706 413.212C142.999 412.418 143.118 411.571 143.056 410.727L141.693 392.087L129.767 391.491Z" fill="#E6E6E6"/>
<path d="M142.311 394.675L129.391 393.378L116.527 255.879L111.666 392.935L98.9716 392.48L77.5764 202.665H159.318L142.311 394.675Z" fill="#06D6A0"/>
<path d="M121.84 69.354C135.474 69.354 146.527 58.3012 146.527 44.667C146.527 31.0327 135.474 19.98 121.84 19.98C108.206 19.98 97.153 31.0327 97.153 44.667C97.153 58.3012 108.206 69.354 121.84 69.354Z" fill="#9F616A"/>
<path d="M149.663 32.8737C139.644 31.1287 129.793 30.8891 120.216 33.1024C114.116 35.0994 106.791 34.9154 98.6436 33.27V16.6222L142.626 17.4149L149.663 32.8737Z" fill="#2F2E41"/>
<path d="M138.269 64.4751C127.469 68.9674 116.145 68.785 104.358 64.4751C107.788 58.6207 102.661 54.0356 100.029 48.1258L144.041 46.8178C140.676 51.9519 135.709 58.0176 138.269 64.4751Z" fill="white"/>
<path d="M96.9987 44.7544L96.5659 45.2738L100.895 48.8811L101.328 48.3618L96.9987 44.7544Z" fill="white"/>
<path d="M144.839 52.0482L137.261 63.9522L137.831 64.3151L145.409 52.4111L144.839 52.0482Z" fill="white"/>
<path d="M97.7879 52.0477L97.2177 52.4106L104.794 64.3157L105.364 63.9528L97.7879 52.0477Z" fill="white"/>
<path d="M74.9063 157.261L56.0031 145.528L72.1242 98.3122C73.9222 93.4401 77.3661 89.3495 81.8605 86.7475L87.2911 83.6034L87.7633 131.235L74.9063 157.261Z" fill="#06D6A0"/>
<path d="M156.614 180.192L153.818 156.238C153.668 143.594 155.819 131.37 160.948 120.106L163.556 84.9071L134.875 73.1741C134.787 73.7585 134.712 74.3426 134.628 74.927L121.186 81.6479L108.077 78.6686L108.15 74.4778L82.0764 86.2108C90.6989 126.297 85.996 167.925 71.1685 217.095L105.518 226.488L105.803 209.994L136.416 207.807C136.731 213.159 136.985 218.415 137.132 223.554C154.406 229.914 154.999 229.808 170.737 220.703C164.47 207.525 159.507 193.813 156.614 180.192Z" fill="#06D6A0"/>
<path d="M200.71 151.394L183.111 145.528L154.959 112.755L163.555 84.9074L202.666 139.661L200.71 151.394Z" fill="#06D6A0"/>
<path d="M145.554 176.766C145.842 178.029 146.619 179.127 147.715 179.819C148.811 180.51 150.137 180.739 151.402 180.454L166.341 177.071L164.182 167.535L149.242 170.918C147.978 171.204 146.879 171.981 146.187 173.078C145.495 174.175 145.267 175.501 145.554 176.766V176.766Z" fill="#E6E6E6"/>
<path d="M158.993 165.735L167.467 181.379C181.72 177.403 194.072 164.871 205.925 150.091L202.666 139.661L182.459 144.876L158.993 165.735Z" fill="#06D6A0"/>
<path d="M48.5067 116.663L64.7743 119.568L101.957 172.437L82.204 167.789L48.5067 116.663Z" fill="#E6E6E6"/>
<path d="M45.6215 116.016C45.3736 116.019 45.1312 116.09 44.9198 116.219C44.7084 116.349 44.5356 116.532 44.4196 116.752C44.3035 116.971 44.2485 117.217 44.2602 117.464C44.2719 117.712 44.35 117.952 44.4862 118.159L79.2425 170.893C79.4364 171.188 79.736 171.397 80.0796 171.478L96.2507 175.283C96.5233 175.347 96.809 175.327 97.0699 175.225C97.3308 175.123 97.5545 174.944 97.7114 174.712C97.8683 174.48 97.9509 174.205 97.9483 173.925C97.9457 173.645 97.858 173.373 97.6969 173.143L59.5366 118.884C59.4331 118.736 59.3015 118.61 59.1493 118.514C58.9971 118.417 58.8273 118.351 58.6496 118.319L45.8821 116.039C45.7961 116.024 45.7089 116.016 45.6215 116.016Z" fill="#3F3D56"/>
<path d="M67.3026 153.72L68.2686 163.45L83.5115 161.937C84.8018 161.808 85.9883 161.173 86.8101 160.17C87.6319 159.167 88.0217 157.879 87.8936 156.589C87.7656 155.299 87.1302 154.112 86.1273 153.29C85.1244 152.468 83.8361 152.079 82.5459 152.207L67.3026 153.72Z" fill="#E6E6E6"/>
<path d="M54.0479 152.593C54.07 155.91 55.4025 159.085 57.7549 161.424C60.1074 163.764 63.2891 165.079 66.6068 165.083H69.1133L70.938 149.876L55.8296 144.437L54.0479 152.593Z" fill="#06D6A0"/>
<path d="M142.837 48.5L142.359 48.0223L143.081 47.3007L147.393 42.2689L147.905 42.7081L143.576 47.7588L142.837 48.5Z" fill="white"/>
<path d="M600 416.288H0V417.639H600V416.288Z" fill="#3F3D56"/>
<path d="M229.054 415.612H370.946V243.507C370.946 234.393 361.969 226.979 350.936 226.979H249.064C238.03 226.979 229.054 234.393 229.054 243.507V415.612Z" fill="#E6E6E6"/>
<path d="M239.865 408.495H360.135V262.615C360.135 254.891 352.527 248.606 343.175 248.606H256.825C247.473 248.606 239.865 254.891 239.865 262.615V408.495Z" fill="white"/>
<path d="M227.982 213.585C224.475 213.585 221.622 215.942 221.622 218.839V234.004C221.622 236.9 224.475 239.257 227.982 239.257H372.018C375.525 239.257 378.378 236.9 378.378 234.004V218.839C378.378 215.942 375.525 213.585 372.018 213.585H227.982Z" fill="#3F3D56"/>
<path d="M257.555 389.79C255.908 389.794 254.33 390.451 253.166 391.615C252.002 392.779 251.345 394.357 251.341 396.004C251.345 397.65 252.002 399.228 253.166 400.392C254.33 401.556 255.908 402.213 257.555 402.218H269.186V389.79H257.555Z" fill="#3F3D56"/>
<path d="M279.861 389.79H268.548V402.218H279.861C281.508 402.213 283.085 401.557 284.25 400.392C285.414 399.228 286.07 397.65 286.075 396.004C286.07 394.357 285.414 392.779 284.25 391.615C283.085 390.451 281.508 389.794 279.861 389.79Z" fill="#06D6A0"/>
<path opacity="0.2" d="M283.916 391.311C284.896 392.435 285.436 393.875 285.438 395.366C285.433 397.013 284.777 398.591 283.612 399.755C282.448 400.919 280.87 401.575 279.224 401.58H268.548V402.218H279.861C281.508 402.213 283.085 401.556 284.25 400.392C285.414 399.228 286.07 397.65 286.075 396.004C286.074 395.112 285.88 394.232 285.507 393.422C285.135 392.612 284.592 391.892 283.916 391.311Z" fill="black"/>
<path d="M310.041 296.191C308.909 294.996 307.349 294.298 305.703 294.25C304.057 294.201 302.459 294.806 301.257 295.932C300.063 297.065 299.365 298.624 299.316 300.27C299.267 301.916 299.872 303.514 300.998 304.716L308.976 313.179L318.02 304.655L310.041 296.191Z" fill="#3F3D56"/>
<path d="M325.342 312.423L317.583 304.191L308.539 312.716L316.299 320.947C317.432 322.142 318.992 322.84 320.637 322.889C322.283 322.937 323.881 322.333 325.083 321.207C326.278 320.074 326.976 318.514 327.024 316.868C327.073 315.222 326.468 313.624 325.342 312.423Z" fill="#06D6A0"/>
<path opacity="0.2" d="M327.016 316.417C326.871 317.901 326.194 319.282 325.11 320.306C323.908 321.432 322.31 322.036 320.664 321.988C319.018 321.939 317.458 321.241 316.326 320.046L309.003 312.278L308.539 312.716L316.299 320.947C317.432 322.142 318.992 322.84 320.637 322.889C322.283 322.937 323.881 322.333 325.083 321.207C325.731 320.594 326.238 319.849 326.572 319.023C326.906 318.196 327.057 317.307 327.016 316.417Z" fill="black"/>
<path d="M276.933 315.785C275.8 314.591 274.241 313.893 272.595 313.844C270.949 313.796 269.351 314.4 268.149 315.526C266.954 316.659 266.257 318.219 266.208 319.865C266.159 321.511 266.764 323.109 267.89 324.31L275.868 332.774L284.912 324.249L276.933 315.785Z" fill="#3F3D56"/>
<path d="M292.234 332.017L284.474 323.785L275.431 332.31L283.191 340.542C284.324 341.737 285.883 342.435 287.529 342.483C289.175 342.532 290.773 341.927 291.975 340.801C293.17 339.668 293.868 338.109 293.916 336.463C293.965 334.817 293.36 333.219 292.234 332.017Z" fill="#06D6A0"/>
<path opacity="0.2" d="M293.908 336.012C293.763 337.495 293.085 338.877 292.001 339.9C290.8 341.026 289.202 341.631 287.556 341.582C285.91 341.534 284.35 340.836 283.217 339.641L275.895 331.873L275.431 332.31L283.191 340.542C284.324 341.737 285.883 342.435 287.529 342.483C289.175 342.532 290.773 341.927 291.975 340.801C292.622 340.189 293.13 339.444 293.464 338.617C293.798 337.791 293.949 336.902 293.908 336.012Z" fill="black"/>
<path d="M310.041 334.029C308.909 332.834 307.349 332.136 305.703 332.087C304.057 332.039 302.459 332.643 301.257 333.769C300.063 334.902 299.365 336.462 299.316 338.108C299.267 339.754 299.872 341.352 300.998 342.553L308.976 351.017L318.02 342.492L310.041 334.029Z" fill="#3F3D56"/>
<path d="M325.342 350.26L317.583 342.029L308.539 350.553L316.299 358.785C317.432 359.98 318.992 360.678 320.637 360.727C322.283 360.775 323.881 360.17 325.083 359.045C326.278 357.912 326.976 356.352 327.024 354.706C327.073 353.06 326.468 351.462 325.342 350.26Z" fill="#06D6A0"/>
<path opacity="0.2" d="M327.016 354.255C326.871 355.739 326.194 357.12 325.11 358.144C323.908 359.269 322.31 359.874 320.664 359.826C319.018 359.777 317.458 359.079 316.326 357.884L309.003 350.116L308.539 350.553L316.299 358.785C317.432 359.98 318.992 360.678 320.637 360.727C322.283 360.775 323.881 360.17 325.083 359.045C325.731 358.432 326.238 357.687 326.572 356.861C326.906 356.034 327.057 355.145 327.016 354.255Z" fill="black"/>
<path d="M330.239 372.858C331.42 371.71 332.099 370.142 332.128 368.496C332.156 366.85 331.532 365.259 330.392 364.071C329.244 362.89 327.676 362.211 326.03 362.183C324.384 362.154 322.793 362.778 321.605 363.919L313.239 371.999L321.873 380.938L330.239 372.858Z" fill="#3F3D56"/>
<path d="M314.195 388.355L322.332 380.496L313.698 371.556L305.561 379.416C304.38 380.563 303.701 382.131 303.672 383.777C303.643 385.424 304.268 387.014 305.408 388.202C306.555 389.383 308.124 390.062 309.77 390.091C311.416 390.119 313.007 389.495 314.195 388.355Z" fill="#06D6A0"/>
<path opacity="0.2" d="M310.221 390.077C308.735 389.95 307.346 389.289 306.309 388.218C305.169 387.03 304.545 385.439 304.573 383.793C304.602 382.147 305.281 380.579 306.462 379.431L314.14 372.015L313.698 371.556L305.561 379.416C304.38 380.563 303.701 382.131 303.672 383.777C303.643 385.424 304.268 387.014 305.408 388.202C306.028 388.842 306.779 389.341 307.61 389.665C308.44 389.988 309.331 390.129 310.221 390.077Z" fill="black"/>
<path d="M285.645 353.263C286.826 352.116 287.504 350.548 287.533 348.901C287.562 347.255 286.938 345.664 285.797 344.477C284.65 343.296 283.082 342.617 281.435 342.588C279.789 342.56 278.198 343.184 277.011 344.324L268.645 352.405L277.278 361.344L285.645 353.263Z" fill="#3F3D56"/>
<path d="M269.6 368.76L277.737 360.901L269.103 351.962L260.966 359.821C259.785 360.968 259.106 362.536 259.078 364.183C259.049 365.829 259.673 367.42 260.813 368.608C261.961 369.788 263.529 370.467 265.175 370.496C266.822 370.525 268.412 369.901 269.6 368.76Z" fill="#06D6A0"/>
<path opacity="0.2" d="M265.626 370.482C264.141 370.355 262.751 369.695 261.715 368.623C260.574 367.436 259.95 365.845 259.979 364.198C260.007 362.552 260.686 360.984 261.867 359.837L269.546 352.42L269.103 351.962L260.966 359.821C259.785 360.968 259.106 362.536 259.078 364.183C259.049 365.829 259.673 367.42 260.813 368.608C261.434 369.248 262.185 369.746 263.015 370.07C263.846 370.394 264.736 370.534 265.626 370.482Z" fill="black"/>
<path d="M349.158 329.615C350.339 328.467 351.018 326.899 351.047 325.253C351.075 323.606 350.451 322.016 349.311 320.828C348.163 319.647 346.595 318.968 344.949 318.94C343.303 318.911 341.712 319.535 340.524 320.675L332.158 328.756L340.792 337.695L349.158 329.615Z" fill="#3F3D56"/>
<path d="M333.113 345.111L341.25 337.252L332.616 328.313L324.48 336.172C323.299 337.32 322.62 338.888 322.591 340.534C322.562 342.18 323.187 343.771 324.327 344.959C325.474 346.14 327.042 346.819 328.689 346.847C330.335 346.876 331.926 346.252 333.113 345.111Z" fill="#06D6A0"/>
<path opacity="0.2" d="M329.14 346.834C327.654 346.706 326.265 346.046 325.228 344.974C324.088 343.787 323.464 342.196 323.492 340.55C323.521 338.903 324.2 337.335 325.381 336.188L333.059 328.772L332.616 328.313L324.48 336.172C323.299 337.32 322.62 338.888 322.591 340.534C322.562 342.18 323.187 343.771 324.327 344.959C324.947 345.599 325.698 346.098 326.529 346.421C327.359 346.745 328.25 346.886 329.14 346.834Z" fill="black"/>
<path d="M335.041 378.623C333.909 377.428 332.349 376.731 330.703 376.682C329.057 376.633 327.459 377.238 326.257 378.364C325.063 379.497 324.365 381.057 324.316 382.703C324.267 384.348 324.872 385.947 325.998 387.148L333.976 395.612L343.02 387.087L335.041 378.623Z" fill="#3F3D56"/>
<path d="M350.342 394.855L342.583 386.623L333.539 395.148L341.299 403.38C342.432 404.575 343.992 405.273 345.637 405.321C347.283 405.37 348.881 404.765 350.083 403.639C351.278 402.506 351.976 400.946 352.024 399.301C352.073 397.655 351.468 396.057 350.342 394.855Z" fill="#06D6A0"/>
<path opacity="0.2" d="M352.016 398.849C351.871 400.333 351.193 401.714 350.11 402.738C348.908 403.864 347.31 404.469 345.664 404.42C344.018 404.372 342.458 403.674 341.325 402.479L334.003 394.711L333.539 395.148L341.299 403.38C342.432 404.575 343.992 405.273 345.637 405.321C347.283 405.37 348.881 404.765 350.083 403.639C350.73 403.027 351.238 402.282 351.572 401.455C351.906 400.629 352.057 399.74 352.016 398.849Z" fill="black"/>
<path d="M291.123 377.948C289.99 376.753 288.43 376.055 286.784 376.006C285.138 375.958 283.54 376.562 282.338 377.688C281.144 378.821 280.446 380.381 280.397 382.027C280.349 383.673 280.953 385.271 282.079 386.472L290.057 394.936L299.101 386.411L291.123 377.948Z" fill="#3F3D56"/>
<path d="M306.423 394.179L298.664 385.948L289.62 394.472L297.38 402.704C298.513 403.899 300.073 404.597 301.718 404.645C303.364 404.694 304.962 404.089 306.164 402.963C307.359 401.831 308.057 400.271 308.105 398.625C308.154 396.979 307.549 395.381 306.423 394.179Z" fill="#06D6A0"/>
<path opacity="0.2" d="M308.097 398.174C307.952 399.658 307.275 401.039 306.191 402.062C304.989 403.188 303.391 403.793 301.745 403.745C300.099 403.696 298.54 402.998 297.407 401.803L290.084 394.035L289.62 394.472L297.38 402.704C298.513 403.899 300.073 404.597 301.718 404.645C303.364 404.694 304.963 404.089 306.164 402.963C306.812 402.351 307.319 401.606 307.653 400.78C307.987 399.953 308.138 399.064 308.097 398.174Z" fill="black"/>
<path d="M303.485 355.655C303.485 357.721 302.772 359.723 301.466 361.324C300.159 362.924 298.34 364.024 296.316 364.437C295.133 364.676 293.914 364.676 292.731 364.437C290.707 364.024 288.888 362.924 287.582 361.323C286.275 359.723 285.562 357.721 285.562 355.655C285.562 353.589 286.275 351.587 287.582 349.986C288.888 348.386 290.707 347.286 292.731 346.872C293.914 346.633 295.133 346.633 296.316 346.872C298.34 347.286 300.159 348.386 301.466 349.986C302.772 351.586 303.486 353.589 303.485 355.655Z" fill="#06D6A0"/>
<path opacity="0.2" d="M296.316 346.872V364.437C295.133 364.676 293.914 364.676 292.731 364.437V346.872C293.914 346.633 295.133 346.633 296.316 346.872Z" fill="black"/>
<path d="M307.539 319.844C307.54 321.91 306.826 323.913 305.52 325.513C304.213 327.113 302.394 328.213 300.37 328.626C299.187 328.865 297.968 328.865 296.785 328.626C294.761 328.213 292.942 327.113 291.636 325.512C290.329 323.912 289.616 321.91 289.616 319.844C289.616 317.778 290.329 315.776 291.636 314.175C292.942 312.575 294.761 311.475 296.785 311.062C297.968 310.823 299.187 310.823 300.37 311.062C302.394 311.475 304.213 312.575 305.52 314.175C306.826 315.775 307.54 317.778 307.539 319.844Z" fill="#06D6A0"/>
<path opacity="0.2" d="M300.37 311.062V328.626C299.187 328.865 297.968 328.865 296.785 328.626V311.062C297.968 310.823 299.187 310.823 300.37 311.062Z" fill="black"/>
<path d="M307.539 371.195C307.54 373.261 306.826 375.264 305.52 376.864C304.213 378.465 302.394 379.565 300.37 379.978C299.187 380.217 297.968 380.217 296.785 379.978C294.761 379.564 292.942 378.464 291.636 376.864C290.329 375.264 289.616 373.261 289.616 371.195C289.616 369.13 290.329 367.127 291.636 365.527C292.942 363.927 294.761 362.827 296.785 362.413C297.968 362.174 299.187 362.174 300.37 362.413C302.394 362.826 304.213 363.926 305.52 365.526C306.826 367.127 307.54 369.129 307.539 371.195Z" fill="#06D6A0"/>
<path opacity="0.2" d="M300.37 362.413V379.978C299.187 380.217 297.968 380.217 296.785 379.978V362.413C297.968 362.174 299.187 362.174 300.37 362.413Z" fill="black"/>
<path d="M329.836 396.195C329.837 398.261 329.123 400.264 327.817 401.864C326.511 403.465 324.691 404.565 322.667 404.978C321.484 405.217 320.265 405.217 319.082 404.978C317.059 404.564 315.239 403.464 313.933 401.864C312.627 400.264 311.913 398.261 311.913 396.195C311.913 394.13 312.627 392.127 313.933 390.527C315.239 388.927 317.059 387.827 319.082 387.413C320.265 387.174 321.484 387.174 322.667 387.413C324.691 387.826 326.511 388.926 327.817 390.526C329.123 392.127 329.837 394.129 329.836 396.195Z" fill="#06D6A0"/>
<path opacity="0.2" d="M322.667 387.413V404.978C321.484 405.217 320.265 405.217 319.083 404.978V387.413C320.265 387.174 321.484 387.174 322.667 387.413Z" fill="black"/>
<path d="M349.534 350.198C351.021 351.632 351.968 353.535 352.214 355.586C352.459 357.638 351.989 359.711 350.882 361.455C350.233 362.472 349.387 363.35 348.394 364.036C346.691 365.206 344.637 365.752 342.578 365.582C340.52 365.412 338.583 364.537 337.095 363.103C335.608 361.669 334.661 359.766 334.416 357.715C334.17 355.664 334.64 353.591 335.747 351.846C336.396 350.829 337.242 349.951 338.235 349.265C339.937 348.095 341.992 347.548 344.05 347.718C346.109 347.888 348.046 348.764 349.534 350.198Z" fill="#06D6A0"/>
<path opacity="0.2" d="M338.235 349.265L350.881 361.455C350.233 362.472 349.387 363.35 348.394 364.036L335.747 351.846C336.396 350.829 337.242 349.951 338.235 349.265Z" fill="black"/>
<path d="M352.236 369.793C353.724 371.226 354.671 373.13 354.916 375.181C355.162 377.232 354.691 379.305 353.584 381.049C352.935 382.067 352.09 382.945 351.097 383.63C349.394 384.801 347.34 385.347 345.281 385.177C343.222 385.007 341.285 384.131 339.798 382.698C338.31 381.264 337.364 379.361 337.118 377.309C336.873 375.258 337.343 373.185 338.45 371.441C339.099 370.423 339.945 369.546 340.938 368.86C342.64 367.689 344.694 367.143 346.753 367.313C348.812 367.483 350.749 368.359 352.236 369.793Z" fill="#06D6A0"/>
<path opacity="0.2" d="M340.938 368.86L353.584 381.049C352.935 382.067 352.09 382.945 351.097 383.63L338.45 371.441C339.099 370.423 339.945 369.546 340.938 368.86Z" fill="black"/>
<path d="M271.831 374.523C273.319 375.956 274.265 377.859 274.511 379.911C274.757 381.962 274.286 384.035 273.179 385.779C272.53 386.797 271.684 387.674 270.691 388.36C268.989 389.53 266.934 390.077 264.876 389.907C262.817 389.737 260.88 388.861 259.392 387.427C257.905 385.994 256.959 384.09 256.713 382.039C256.467 379.988 256.938 377.915 258.044 376.171C258.693 375.153 259.539 374.276 260.532 373.59C262.234 372.419 264.289 371.872 266.348 372.042C268.407 372.212 270.344 373.089 271.831 374.523Z" fill="#06D6A0"/>
<path opacity="0.2" d="M260.532 373.59L273.179 385.779C272.53 386.797 271.684 387.674 270.691 388.36L258.045 376.171C258.693 375.153 259.539 374.276 260.532 373.59Z" fill="black"/>
<path opacity="0.2" d="M242.905 213.585H239.527V238.585H242.905V213.585Z" fill="black"/>
<path opacity="0.2" d="M262.5 213.585H259.122V238.585H262.5V213.585Z" fill="black"/>
<path opacity="0.2" d="M282.095 213.585H278.716V238.585H282.095V213.585Z" fill="black"/>
<path opacity="0.2" d="M301.689 213.585H298.311V238.585H301.689V213.585Z" fill="black"/>
<path opacity="0.2" d="M321.284 213.585H317.905V238.585H321.284V213.585Z" fill="black"/>
<path opacity="0.2" d="M340.878 213.585H337.5V238.585H340.878V213.585Z" fill="black"/>
<path opacity="0.2" d="M360.473 213.585H357.095V238.585H360.473V213.585Z" fill="black"/>
</g>
<defs>
<clipPath id="clip0_2836_743">
<rect width="600" height="417.639" fill="white"/>
</clipPath>
</defs>
</svg>
